<svg xmlns="http://www.w3.org/2000/svg" viewBox="0 0 24 28"><defs><style>.cls-1{fill:#039be5;}</style></defs><title>路径 169 (2)</title><g id="Layer_2" data-name="Layer 2"><g id="Layer_1-2" data-name="Layer 1"><path id="路径_169" data-name="路径 169" class="cls-1" d="M13.06,10.05V6.73a1.11,1.11,0,0,0-2.21-.07v3.39H7.52a1.12,1.12,0,0,0,0,2.24h3.33v3.32a1.11,1.11,0,0,0,1.07,1.14,1.12,1.12,0,0,0,1.14-1.08V12.29h3.32a1.12,1.12,0,1,0,0-2.24ZM24,3V25.14a2.89,2.89,0,0,1-1.71,2.66,2.1,2.1,0,0,1-2-.14L12,22.89,3.74,27.66a2.24,2.24,0,0,1-2,.14A3,3,0,0,1,0,25.14V2.94A3,3,0,0,1,3,0H21a3,3,0,0,1,3,2.92v0Z"/></g></g></svg>