<svg xmlns="http://www.w3.org/2000/svg" viewBox="0 0 25.99 26"><defs><style>.cls-1{fill:#039be5;}</style></defs><title>路径 172 (2)</title><g id="Layer_2" data-name="Layer 2"><g id="Layer_1-2" data-name="Layer 1"><path id="路径_172" data-name="路径 172" class="cls-1" d="M24.69,0H1.3A1.3,1.3,0,0,0,0,1.3V24.7A1.3,1.3,0,0,0,1.3,26H24.69A1.3,1.3,0,0,0,26,24.7h0V1.3A1.3,1.3,0,0,0,24.69,0Zm-1.3,7.79H18.25V2.6h5.14Zm-13,0V2.6h5.21V7.79Zm-2.61,2.6v5.2H2.6v-5.2Zm7.82,7.79V23.4H10.43V18.18Zm2.61-2.6v-5.2h5.14v5.2ZM2.61,18.18H7.82V23.4H2.6Z"/></g></g></svg>