<svg xmlns="http://www.w3.org/2000/svg" viewBox="0 0 32.01 32"><defs><style>.cls-1{fill:#039be5;}</style></defs><title>路径 150 (2)</title><g id="Layer_2" data-name="Layer 2"><g id="Layer_1-2" data-name="Layer 1"><path id="路径_150" data-name="路径 150" class="cls-1" d="M27.14,0a4.86,4.86,0,0,0-4.57,5.13,5,5,0,0,0,.53,2L9.52,14.68a5.18,5.18,0,0,0-2.3-2.26L9.68,6.57a3.6,3.6,0,0,0,.8.12h.1a3.24,3.24,0,0,0,3.17-3.31h0A3.33,3.33,0,0,0,10.47,0h0A3.34,3.34,0,0,0,8.34,5.85L5.76,12a4.06,4.06,0,0,0-.7-.09A5.18,5.18,0,0,0,0,17.15v0A5.14,5.14,0,0,0,5.07,22.4h0a5.13,5.13,0,0,0,4.7-3.33l8.42,4.3A6.41,6.41,0,0,0,24.06,32h.11a6.26,6.26,0,0,0,6.11-6.4h0a6.35,6.35,0,0,0-6.22-6.46,6.43,6.43,0,0,0-5.36,3.2l-8.63-4.41a5,5,0,0,0-.1-2.08L23.8,8.12A4.67,4.67,0,0,0,32,4.86V4.59A4.72,4.72,0,0,0,27.15,0Z"/></g></g></svg>