<svg xmlns="http://www.w3.org/2000/svg" viewBox="0 0 24 28"><defs><style>.cls-1{fill:#039be5;}</style></defs><title>路径 170 (2)</title><g id="Layer_2" data-name="Layer 2"><g id="Layer_1-2" data-name="Layer 1"><path id="路径_170" data-name="路径 170" class="cls-1" d="M21.33,0H2.67A2.74,2.74,0,0,0,0,2.8V25.2A2.74,2.74,0,0,0,2.67,28H21.33A2.74,2.74,0,0,0,24,25.2V2.8A2.74,2.74,0,0,0,21.33,0ZM10.49,13.3a1.31,1.31,0,0,1-1.15.7h-4a1.31,1.31,0,0,1-1.16-.7,1.45,1.45,0,0,1,0-1.4,1.31,1.31,0,0,1,1.16-.7h4a1.31,1.31,0,0,1,1.15.7,1.45,1.45,0,0,1,0,1.4Zm2.84-4.9h-8a1.4,1.4,0,1,1,0-2.8h8a1.4,1.4,0,1,1,0,2.8Z"/></g></g></svg>