<?xml version="1.0" encoding="utf-8"?>
<!-- Generator: Adobe Illustrator 23.0.2, SVG Export Plug-In . SVG Version: 6.00 Build 0)  -->
<svg version="1.1" id="Layer_1" xmlns="http://www.w3.org/2000/svg" xmlns:xlink="http://www.w3.org/1999/xlink" x="0px" y="0px"
	 viewBox="0 0 400 400" style="enable-background:new 0 0 400 400;" xml:space="preserve">
<style type="text/css">
	.st0{fill:#90A4AE;}
</style>
<g>
	<path class="st0" d="M122.2,388.9c-6.7,0-11.1-2.2-15.6-6.7c-8.9-8.9-6.7-22.2,2.2-31.1l142.2-128.9c4.4-4.4,6.7-8.9,6.7-13.3
		c0-4.4-2.2-8.9-6.7-13.3L106.7,73.3c-8.9-8.9-11.1-22.2-2.2-31.1c8.9-8.9,22.2-11.1,31.1-2.2l142.2,122.2
		c13.3,11.1,22.2,28.9,22.2,46.7s-6.7,33.3-20,46.7L137.8,384.4C133.3,386.7,126.7,388.9,122.2,388.9L122.2,388.9z"/>
</g>
</svg>
