<?xml version="1.0" encoding="utf-8"?>
<!-- Generator: Adobe Illustrator 23.0.2, SVG Export Plug-In . SVG Version: 6.00 Build 0)  -->
<svg version="1.1" id="Layer_1" xmlns="http://www.w3.org/2000/svg" xmlns:xlink="http://www.w3.org/1999/xlink" x="0px" y="0px"
	 viewBox="0 0 400 400" style="enable-background:new 0 0 400 400;" xml:space="preserve">
<style type="text/css">
	.st0{fill:#90A4AE;}
</style>
<g>
	<path class="st0" d="M51.8,388.4L50,50.2C50,38.8,54.4,28,62.4,20s18.8-12.4,30-12.4h215.8c11.4,0,22,4.4,30,12.4
		c8,8,12.4,18.8,12.4,30v337.4L201.6,264L51.8,388.4z M92.6,37.6c-3.4,0-6.6,1.4-8.8,3.6c-2.2,2.2-3.8,5.6-3.8,9l1.4,274.6l120-99.8
		l119.4,98.8V50.2c0-3.4-1.4-6.6-3.6-8.8c-2.2-2.2-5.6-3.6-8.8-3.6H92.6V37.6z"/>
</g>
</svg>
