<?xml version="1.0" encoding="utf-8"?>
<!-- Generator: Adobe Illustrator 23.0.2, SVG Export Plug-In . SVG Version: 6.00 Build 0)  -->
<svg version="1.1" id="Layer_1" xmlns="http://www.w3.org/2000/svg" xmlns:xlink="http://www.w3.org/1999/xlink" x="0px" y="0px"
	 viewBox="0 0 400 400" style="enable-background:new 0 0 400 400;" xml:space="preserve">
<style type="text/css">
	.st0{fill:#90A4AE;}
</style>
<g>
	<path class="st0" d="M10.4,200c0,10.5,8.5,19,19,19s19-8.5,19-19c0-10.5-8.5-19-19-19S10.4,189.5,10.4,200
		C10.4,200,10.4,200,10.4,200z"/>
	<path class="st0" d="M10.4,67.3c0,10.5,8.5,19,19,19s19-8.5,19-19c0-10.5-8.5-19-19-19S10.4,56.8,10.4,67.3
		C10.4,67.3,10.4,67.3,10.4,67.3z"/>
	<path class="st0" d="M10.4,332.7c0,10.5,8.5,19,19,19s19-8.5,19-19c0-10.5-8.5-19-19-19C18.9,313.8,10.4,322.3,10.4,332.7
		C10.4,332.7,10.4,332.7,10.4,332.7z"/>
	<path class="st0" d="M105.2,181h265.5c12.6,0,19,6.3,19,19l0,0c0,12.6-6.3,19-19,19H105.2c-12.6,0-19-6.3-19-19l0,0
		C86.2,187.4,92.5,181,105.2,181L105.2,181z"/>
	<path class="st0" d="M105.2,48.3h265.5c12.6,0,19,6.3,19,19l0,0c0,12.6-6.3,19-19,19H105.2c-12.6,0-19-6.3-19-19l0,0
		C86.2,54.6,92.5,48.3,105.2,48.3L105.2,48.3z"/>
	<path class="st0" d="M105.2,313.8h265.5c12.6,0,19,6.3,19,19l0,0c0,12.6-6.3,19-19,19H105.2c-12.6,0-19-6.3-19-19l0,0
		C86.2,320.1,92.5,313.8,105.2,313.8L105.2,313.8z"/>
</g>
</svg>
