<svg xmlns="http://www.w3.org/2000/svg" viewBox="0 0 379.26 303.41"><defs><style>.cls-1{fill:#90a4ae;}</style></defs><title>Asset 7</title><g id="Layer_2" data-name="Layer 2"><g id="Layer_1-2" data-name="Layer 1"><path class="cls-1" d="M0,151.71a19,19,0,1,0,19-19,19,19,0,0,0-19,19Z"/><path class="cls-1" d="M0,19A19,19,0,1,0,19,0,19,19,0,0,0,0,19Z"/><path class="cls-1" d="M0,284.45a19,19,0,1,0,19-19,19,19,0,0,0-19,19Z"/><path class="cls-1" d="M94.81,132.74H360.3q19,0,19,19h0q0,19-19,19H94.81q-19,0-19-19h0q0-19,19-19Z"/><path class="cls-1" d="M94.81,0H360.3q19,0,19,19h0q0,19-19,19H94.81q-19,0-19-19h0q0-19,19-19Z"/><path class="cls-1" d="M94.81,265.48H360.3q19,0,19,19h0q0,19-19,19H94.81q-19,0-19-19h0q0-19,19-19Z"/></g></g></svg>